<?xml version="1.0" encoding="utf-8"?>
<!-- Generator: Adobe Illustrator 13.0.0, SVG Export Plug-In  -->
<!DOCTYPE svg PUBLIC "-//W3C//DTD SVG 1.1//EN" "http://www.w3.org/Graphics/SVG/1.1/DTD/svg11.dtd" [
	<!ENTITY ns_flows "http://ns.adobe.com/Flows/1.0/">
]>
<svg version="1.1"
	 xmlns="http://www.w3.org/2000/svg" xmlns:xlink="http://www.w3.org/1999/xlink" xmlns:a="http://ns.adobe.com/AdobeSVGViewerExtensions/3.0/"
	 x="0px" y="0px" width="507px" height="459px" viewBox="-21.914 -25.609 507 459" enable-background="new -21.914 -25.609 507 459"
	 xml:space="preserve">
<defs>
</defs>
<path fill="#E5D4B1" stroke="#000000" stroke-width="3" d="M466.982,303.788c-22-3-57-23-62-26s-28-28-40-47s-23-42-27-55
	s-8-26-9-33s1-23.5,4-30.5c-7-5-21-6-27,7s-11,33-11,46s22,55,8,61s-17,14-89-4s-102-20-109-6s34,20,56,24s72.021,22.634,65,32
	c-4.35,5.802-9.375,4.488-20.709,8.488c-19.611,6.922-19.308,9.966-43.791,18.345c-24.433,8.362-22.843,32.226-15.167,36.23
	s14.016,6.342,46.386-12.013c14.35-5.34,31.782-8.885,47.115-10.218s24.668,56,41.334,64.667s35.999,8,47.999,8
	s18.666,2.001,25.333-1.333s25.334,1.332,35.334,6.666c0,0,38.667,18.667,42,22.667"/>
<path fill="none" stroke="#897F6A" stroke-width="2" d="M234.483,270.787c33.999-1.999,45.999,30.667,53.999,48.001"/>
<path fill="none" stroke="#897F6A" stroke-width="2" d="M306.149,245.453c0.334,25.334,11.001,46.668,25.333,54.666"/>
<path fill="none" stroke="#897F6A" stroke-width="2" d="M239.816,230.787c-8,1.333-17.333,20-13.333,25.333"/>
<path fill="none" stroke="#897F6A" stroke-width="2" d="M197.149,220.12c-5.333,4-16,13.333-13.333,18.667"/>
<path fill="none" stroke="#897F6A" stroke-width="2" d="M149.149,212.12c-6.667,4-8.834,15.501-10.167,18.167"/>
<path fill="none" stroke="#897F6A" stroke-width="2" d="M222.483,280.121c8,4,12,17.332,9.333,26.666"/>
<path fill="none" stroke="#897F6A" stroke-width="2" d="M201.296,287.393c6.667,4,7.248,23.993,4.581,27.993"/>
<path fill="none" stroke="#897F6A" stroke-width="2" d="M175.848,298.59c8.648,6.485,9.591,15.534,5.089,26.466"/>
<path fill="none" stroke="#897F6A" stroke-width="2" d="M293.982,236.288c-4,10-7,18-6,24"/>
<path fill="none" stroke="#897F6A" stroke-width="2" d="M294.982,165.288c11.947,1.707,2.677,3.252,25-1"/>
<path fill="none" stroke="#897F6A" stroke-width="2" d="M399.149,286.788c-4,12-8,15.999-14.667,19.999"/>
<path fill="#E5D4B1" stroke="#000000" stroke-width="3" d="M299.816,374.455c15.905-3.181,27.334-5.333,36-8
	s21.332-10.001,24.666-16.667s0.667-7.999-1.333-12.666s-23.999-2-29.333,0s-10,4-32,7.333s-28,5-39.334,3.666
	c-9.292-1.094,1.335,22.333,6.001,25S269.816,380.455,299.816,374.455z"/>
<path fill="#E5D4B1" stroke="#000000" stroke-width="3" d="M316.784,311.788c18.897-1.333,28.348-2.666,33.435,2.667
	s2.906,10.667,1.453,12s-18.171,8.666-26.893,11.333c-8.723,2.667-10.176,0.667-27.619,4.667c-17.444,4-18.897,5.333-23.986,7.333
	c-5.088,2-15.263,1.333-24.711-6c-9.449-7.333-7.996-20-7.269-24c0.727-4,1.455-12.667,19.625-14s12.354,4.666,35.614,5.333
	C319.691,311.788,316.784,311.788,316.784,311.788z"/>
<path fill="none" stroke="#897F6A" stroke-width="2" d="M245.815,318.455c-1.923,17.305,1.109,18.166,10.667,25.333"/>
<path fill="none" stroke="#897F6A" stroke-width="2" d="M275.149,318.787c0,5.333,1.333,17.333,1.333,17.333"/>
<path fill="none" stroke="#897F6A" stroke-width="2" d="M308.149,317.12c0,2.667,1.334,13.333,1.334,17.333"/>
<path fill="none" stroke="#897F6A" stroke-width="2" d="M314.815,347.122c0,4,6.667,17.333,6.667,17.333"/>
<path fill="none" stroke="#897F6A" stroke-width="2" d="M282.482,354.788c1.333,2.667,2.667,14.666,6.667,16"/>
<path fill="none" stroke="#897F6A" stroke-width="2" d="M405.815,318.788c-6.666,12-10.666,42.668-17.333,49.334"/>
<line fill="none" stroke="#cc0000" stroke-width="9" stroke-linecap="round" x1="323.482" y1="90.788" x2="322.814" y2="41.788"/>
<polygon fill="#cc0000" points="322.814,41.788 299.501,60.3 322.814,0 346.127,60.3 "/>
<line fill="none" stroke="#009900" stroke-width="9" stroke-linecap="round" x1="88.996" y1="210.46" x2="40.9" y2="201.067"/>
<polygon fill="#009900" points="40.9,201.067 54.24,227.68 0,192.5 63.799,182.044 "/>
<line fill="none" stroke="#0000ff" stroke-width="9" stroke-linecap="round" x1="126.377" y1="335.255" x2="95.585" y2="348.005"/>
<polygon fill="#0000ff" points="95.585,348.005 118.064,371.413 69.063,358.197 96.605,315.568 "/>
<g font-family="serif" font-weight="bold" font-size="80" text-anchor="middle" stroke="none">
	<text x="380" y="80" fill="#cc0000">x</text>
	<text x="50" y="150" fill="#009900">y</text>
	<text x="80" y="430" fill="#0000ff">z</text>
</g>
</svg>
